<svg width="3801" height="2002" viewBox="0 0 3801 2002" fill="none" xmlns="http://www.w3.org/2000/svg">
<rect width="3801" height="2002" fill="#38206A"/>
<path d="M1605.41 658V646.364H1612.43V647.614H1606.82V651.545H1612.07V652.795H1606.82V656.75H1612.52V658H1605.41ZM1614.79 658V649.273H1616.09V650.636H1616.2C1616.38 650.17 1616.67 649.809 1617.08 649.551C1617.48 649.29 1617.97 649.159 1618.54 649.159C1619.12 649.159 1619.59 649.29 1619.98 649.551C1620.36 649.809 1620.66 650.17 1620.88 650.636H1620.97C1621.2 650.186 1621.53 649.828 1621.98 649.562C1622.42 649.294 1622.96 649.159 1623.59 649.159C1624.37 649.159 1625 649.403 1625.5 649.892C1626 650.377 1626.24 651.133 1626.24 652.159V658H1624.9V652.159C1624.9 651.515 1624.73 651.055 1624.38 650.778C1624.02 650.502 1623.61 650.364 1623.13 650.364C1622.52 650.364 1622.04 650.549 1621.7 650.92C1621.37 651.288 1621.2 651.754 1621.2 652.318V658H1619.84V652.023C1619.84 651.527 1619.67 651.127 1619.35 650.824C1619.03 650.517 1618.62 650.364 1618.11 650.364C1617.76 650.364 1617.43 650.456 1617.13 650.642C1616.83 650.828 1616.59 651.085 1616.4 651.415C1616.22 651.741 1616.13 652.117 1616.13 652.545V658H1614.79ZM1631.26 658.205C1630.71 658.205 1630.21 658.1 1629.76 657.892C1629.31 657.68 1628.95 657.375 1628.68 656.977C1628.42 656.576 1628.29 656.091 1628.29 655.523C1628.29 655.023 1628.39 654.617 1628.58 654.307C1628.78 653.992 1629.04 653.746 1629.37 653.568C1629.7 653.39 1630.07 653.258 1630.46 653.17C1630.86 653.08 1631.27 653.008 1631.67 652.955C1632.2 652.886 1632.63 652.835 1632.96 652.801C1633.3 652.763 1633.54 652.701 1633.69 652.614C1633.85 652.527 1633.92 652.375 1633.92 652.159V652.114C1633.92 651.553 1633.77 651.117 1633.46 650.807C1633.16 650.496 1632.7 650.341 1632.08 650.341C1631.44 650.341 1630.94 650.481 1630.58 650.761C1630.21 651.042 1629.96 651.341 1629.81 651.659L1628.54 651.205C1628.76 650.674 1629.07 650.261 1629.45 649.966C1629.83 649.667 1630.25 649.458 1630.7 649.341C1631.15 649.22 1631.6 649.159 1632.04 649.159C1632.32 649.159 1632.64 649.193 1633 649.261C1633.37 649.326 1633.72 649.46 1634.07 649.665C1634.41 649.869 1634.7 650.178 1634.92 650.591C1635.15 651.004 1635.26 651.557 1635.26 652.25V658H1633.92V656.818H1633.86C1633.76 657.008 1633.61 657.21 1633.4 657.426C1633.19 657.642 1632.91 657.826 1632.55 657.977C1632.2 658.129 1631.77 658.205 1631.26 658.205ZM1631.47 657C1632 657 1632.45 656.896 1632.81 656.688C1633.18 656.479 1633.45 656.21 1633.64 655.881C1633.83 655.551 1633.92 655.205 1633.92 654.841V653.614C1633.87 653.682 1633.74 653.744 1633.55 653.801C1633.36 653.854 1633.14 653.902 1632.89 653.943C1632.64 653.981 1632.4 654.015 1632.17 654.045C1631.94 654.072 1631.75 654.095 1631.61 654.114C1631.26 654.159 1630.93 654.233 1630.63 654.335C1630.33 654.434 1630.09 654.583 1629.9 654.784C1629.72 654.981 1629.63 655.25 1629.63 655.591C1629.63 656.057 1629.8 656.409 1630.14 656.648C1630.49 656.883 1630.93 657 1631.47 657ZM1637.71 658V649.273H1639.05V658H1637.71ZM1638.39 647.818C1638.13 647.818 1637.91 647.729 1637.72 647.551C1637.53 647.373 1637.44 647.159 1637.44 646.909C1637.44 646.659 1637.53 646.445 1637.72 646.267C1637.91 646.089 1638.13 646 1638.39 646C1638.65 646 1638.88 646.089 1639.06 646.267C1639.25 646.445 1639.35 646.659 1639.35 646.909C1639.35 647.159 1639.25 647.373 1639.06 647.551C1638.88 647.729 1638.65 647.818 1638.39 647.818ZM1642.85 646.364V658H1641.51V646.364H1642.85Z" fill="#1E1E1E"/>
<path d="M1604 679C1604 674.582 1607.58 671 1612 671H2331C2335.42 671 2339 674.582 2339 679V739C2339 743.418 2335.42 747 2331 747H1612C1607.58 747 1604 743.418 1604 739V679Z" fill="white"/>
<path d="M1612 671.5H2331V670.5H1612V671.5ZM2338.5 679V739H2339.5V679H2338.5ZM2331 746.5H1612V747.5H2331V746.5ZM1604.5 739V679H1603.5V739H1604.5ZM1612 746.5C1607.86 746.5 1604.5 743.142 1604.5 739H1603.5C1603.5 743.694 1607.31 747.5 1612 747.5V746.5ZM2338.5 739C2338.5 743.142 2335.14 746.5 2331 746.5V747.5C2335.69 747.5 2339.5 743.694 2339.5 739H2338.5ZM2331 671.5C2335.14 671.5 2338.5 674.858 2338.5 679H2339.5C2339.5 674.306 2335.69 670.5 2331 670.5V671.5ZM1612 670.5C1607.31 670.5 1603.5 674.306 1603.5 679H1604.5C1604.5 674.858 1607.86 671.5 1612 671.5V670.5Z" fill="#D9D9D9"/>
<path d="M1620.41 715V713.705H1620.75C1621.23 713.705 1621.61 713.549 1621.88 713.239C1622.15 712.928 1622.34 712.426 1622.46 711.733C1622.58 711.04 1622.66 710.121 1622.7 708.977L1622.91 703.364H1630V715H1628.59V704.614H1624.25L1624.07 709.25C1624.02 710.47 1623.91 711.508 1623.73 712.364C1623.55 713.22 1623.24 713.873 1622.8 714.324C1622.35 714.775 1621.7 715 1620.84 715H1620.41ZM1636.18 715.182C1635.39 715.182 1634.7 714.994 1634.11 714.619C1633.51 714.244 1633.05 713.72 1632.72 713.045C1632.39 712.371 1632.22 711.583 1632.22 710.682C1632.22 709.773 1632.39 708.979 1632.72 708.301C1633.05 707.623 1633.51 707.097 1634.11 706.722C1634.7 706.347 1635.39 706.159 1636.18 706.159C1636.97 706.159 1637.66 706.347 1638.25 706.722C1638.84 707.097 1639.3 707.623 1639.63 708.301C1639.97 708.979 1640.13 709.773 1640.13 710.682C1640.13 711.583 1639.97 712.371 1639.63 713.045C1639.3 713.72 1638.84 714.244 1638.25 714.619C1637.66 714.994 1636.97 715.182 1636.18 715.182ZM1636.18 713.977C1636.78 713.977 1637.27 713.824 1637.66 713.517C1638.04 713.21 1638.33 712.807 1638.51 712.307C1638.7 711.807 1638.79 711.265 1638.79 710.682C1638.79 710.098 1638.7 709.555 1638.51 709.051C1638.33 708.547 1638.04 708.14 1637.66 707.83C1637.27 707.519 1636.78 707.364 1636.18 707.364C1635.58 707.364 1635.09 707.519 1634.7 707.83C1634.32 708.14 1634.03 708.547 1633.84 709.051C1633.66 709.555 1633.57 710.098 1633.57 710.682C1633.57 711.265 1633.66 711.807 1633.84 712.307C1634.03 712.807 1634.32 713.21 1634.7 713.517C1635.09 713.824 1635.58 713.977 1636.18 713.977ZM1647.57 706.273V707.523H1643.52V715H1642.18V706.273H1647.57ZM1650.87 713.023L1655.07 706.273H1656.62V715H1655.27V708.25L1651.09 715H1649.52V706.273H1650.87V713.023ZM1664.91 710.023V711.273H1660.09V710.023H1664.91ZM1660.41 706.273V715H1659.07V706.273H1660.41ZM1665.93 706.273V715H1664.59V706.273H1665.93Z" fill="#B3B3B3"/>
<path d="M1607.41 778V766.364H1614.43V767.614H1608.82V771.545H1614.07V772.795H1608.82V776.75H1614.52V778H1607.41ZM1616.79 778V769.273H1618.09V770.636H1618.2C1618.38 770.17 1618.67 769.809 1619.08 769.551C1619.48 769.29 1619.97 769.159 1620.54 769.159C1621.12 769.159 1621.59 769.29 1621.98 769.551C1622.36 769.809 1622.66 770.17 1622.88 770.636H1622.97C1623.2 770.186 1623.53 769.828 1623.98 769.562C1624.42 769.294 1624.96 769.159 1625.59 769.159C1626.37 769.159 1627 769.403 1627.5 769.892C1628 770.377 1628.24 771.133 1628.24 772.159V778H1626.9V772.159C1626.9 771.515 1626.73 771.055 1626.38 770.778C1626.02 770.502 1625.61 770.364 1625.13 770.364C1624.52 770.364 1624.04 770.549 1623.7 770.92C1623.37 771.288 1623.2 771.754 1623.2 772.318V778H1621.84V772.023C1621.84 771.527 1621.67 771.127 1621.35 770.824C1621.03 770.517 1620.62 770.364 1620.11 770.364C1619.76 770.364 1619.43 770.456 1619.13 770.642C1618.83 770.828 1618.59 771.085 1618.4 771.415C1618.22 771.741 1618.13 772.117 1618.13 772.545V778H1616.79ZM1633.26 778.205C1632.71 778.205 1632.21 778.1 1631.76 777.892C1631.31 777.68 1630.95 777.375 1630.68 776.977C1630.42 776.576 1630.29 776.091 1630.29 775.523C1630.29 775.023 1630.39 774.617 1630.58 774.307C1630.78 773.992 1631.04 773.746 1631.37 773.568C1631.7 773.39 1632.07 773.258 1632.46 773.17C1632.86 773.08 1633.27 773.008 1633.67 772.955C1634.2 772.886 1634.63 772.835 1634.96 772.801C1635.3 772.763 1635.54 772.701 1635.69 772.614C1635.85 772.527 1635.92 772.375 1635.92 772.159V772.114C1635.92 771.553 1635.77 771.117 1635.46 770.807C1635.16 770.496 1634.7 770.341 1634.08 770.341C1633.44 770.341 1632.94 770.481 1632.58 770.761C1632.21 771.042 1631.96 771.341 1631.81 771.659L1630.54 771.205C1630.76 770.674 1631.07 770.261 1631.45 769.966C1631.83 769.667 1632.25 769.458 1632.7 769.341C1633.15 769.22 1633.6 769.159 1634.04 769.159C1634.32 769.159 1634.64 769.193 1635 769.261C1635.37 769.326 1635.72 769.46 1636.07 769.665C1636.41 769.869 1636.7 770.178 1636.92 770.591C1637.15 771.004 1637.26 771.557 1637.26 772.25V778H1635.92V776.818H1635.86C1635.76 777.008 1635.61 777.21 1635.4 777.426C1635.19 777.642 1634.91 777.826 1634.55 777.977C1634.2 778.129 1633.77 778.205 1633.26 778.205ZM1633.47 777C1634 777 1634.45 776.896 1634.81 776.688C1635.18 776.479 1635.45 776.21 1635.64 775.881C1635.83 775.551 1635.92 775.205 1635.92 774.841V773.614C1635.87 773.682 1635.74 773.744 1635.55 773.801C1635.36 773.854 1635.14 773.902 1634.89 773.943C1634.64 773.981 1634.4 774.015 1634.17 774.045C1633.94 774.072 1633.75 774.095 1633.61 774.114C1633.26 774.159 1632.93 774.233 1632.63 774.335C1632.33 774.434 1632.09 774.583 1631.9 774.784C1631.72 774.981 1631.63 775.25 1631.63 775.591C1631.63 776.057 1631.8 776.409 1632.14 776.648C1632.49 776.883 1632.93 777 1633.47 777ZM1639.71 778V769.273H1641.05V778H1639.71ZM1640.39 767.818C1640.13 767.818 1639.91 767.729 1639.72 767.551C1639.53 767.373 1639.44 767.159 1639.44 766.909C1639.44 766.659 1639.53 766.445 1639.72 766.267C1639.91 766.089 1640.13 766 1640.39 766C1640.65 766 1640.88 766.089 1641.06 766.267C1641.25 766.445 1641.35 766.659 1641.35 766.909C1641.35 767.159 1641.25 767.373 1641.06 767.551C1640.88 767.729 1640.65 767.818 1640.39 767.818ZM1644.85 766.364V778H1643.51V766.364H1644.85Z" fill="#1E1E1E"/>
<path d="M1606 799C1606 794.582 1609.58 791 1614 791H2333C2337.42 791 2341 794.582 2341 799V859C2341 863.418 2337.42 867 2333 867H1614C1609.58 867 1606 863.418 1606 859V799Z" fill="white"/>
<path d="M1614 791.5H2333V790.5H1614V791.5ZM2340.5 799V859H2341.5V799H2340.5ZM2333 866.5H1614V867.5H2333V866.5ZM1606.5 859V799H1605.5V859H1606.5ZM1614 866.5C1609.86 866.5 1606.5 863.142 1606.5 859H1605.5C1605.5 863.694 1609.31 867.5 1614 867.5V866.5ZM2340.5 859C2340.5 863.142 2337.14 866.5 2333 866.5V867.5C2337.69 867.5 2341.5 863.694 2341.5 859H2340.5ZM2333 791.5C2337.14 791.5 2340.5 794.858 2340.5 799H2341.5C2341.5 794.306 2337.69 790.5 2333 790.5V791.5ZM1614 790.5C1609.31 790.5 1605.5 794.306 1605.5 799H1606.5C1606.5 794.858 1609.86 791.5 1614 791.5V790.5Z" fill="#D9D9D9"/>
<path d="M1632.11 823.364V835H1630.7V824.614H1624.84V835H1623.43V823.364H1632.11ZM1637.34 835.205C1636.79 835.205 1636.29 835.1 1635.84 834.892C1635.39 834.68 1635.03 834.375 1634.76 833.977C1634.5 833.576 1634.37 833.091 1634.37 832.523C1634.37 832.023 1634.46 831.617 1634.66 831.307C1634.86 830.992 1635.12 830.746 1635.45 830.568C1635.78 830.39 1636.14 830.258 1636.54 830.17C1636.94 830.08 1637.35 830.008 1637.75 829.955C1638.28 829.886 1638.71 829.835 1639.04 829.801C1639.37 829.763 1639.62 829.701 1639.77 829.614C1639.92 829.527 1640 829.375 1640 829.159V829.114C1640 828.553 1639.85 828.117 1639.54 827.807C1639.24 827.496 1638.78 827.341 1638.16 827.341C1637.52 827.341 1637.02 827.481 1636.65 827.761C1636.29 828.042 1636.04 828.341 1635.89 828.659L1634.62 828.205C1634.84 827.674 1635.15 827.261 1635.52 826.966C1635.91 826.667 1636.32 826.458 1636.77 826.341C1637.23 826.22 1637.68 826.159 1638.12 826.159C1638.4 826.159 1638.72 826.193 1639.08 826.261C1639.45 826.326 1639.8 826.46 1640.14 826.665C1640.49 826.869 1640.77 827.178 1641 827.591C1641.23 828.004 1641.34 828.557 1641.34 829.25V835H1640V833.818H1639.93C1639.84 834.008 1639.69 834.21 1639.48 834.426C1639.27 834.642 1638.98 834.826 1638.63 834.977C1638.28 835.129 1637.85 835.205 1637.34 835.205ZM1637.55 834C1638.08 834 1638.52 833.896 1638.89 833.688C1639.26 833.479 1639.53 833.21 1639.72 832.881C1639.91 832.551 1640 832.205 1640 831.841V830.614C1639.94 830.682 1639.82 830.744 1639.63 830.801C1639.44 830.854 1639.22 830.902 1638.97 830.943C1638.72 830.981 1638.48 831.015 1638.25 831.045C1638.01 831.072 1637.83 831.095 1637.68 831.114C1637.33 831.159 1637.01 831.233 1636.71 831.335C1636.41 831.434 1636.16 831.583 1635.98 831.784C1635.8 831.981 1635.71 832.25 1635.71 832.591C1635.71 833.057 1635.88 833.409 1636.22 833.648C1636.57 833.883 1637.01 834 1637.55 834ZM1643.79 838.273V826.273H1645.09V827.659H1645.24C1645.34 827.508 1645.48 827.314 1645.65 827.08C1645.83 826.841 1646.09 826.629 1646.41 826.443C1646.75 826.254 1647.2 826.159 1647.77 826.159C1648.5 826.159 1649.15 826.343 1649.71 826.71C1650.27 827.078 1650.71 827.598 1651.02 828.273C1651.34 828.947 1651.49 829.742 1651.49 830.659C1651.49 831.583 1651.34 832.384 1651.02 833.062C1650.71 833.737 1650.27 834.259 1649.72 834.631C1649.16 834.998 1648.52 835.182 1647.79 835.182C1647.23 835.182 1646.78 835.089 1646.44 834.903C1646.11 834.714 1645.85 834.5 1645.66 834.261C1645.48 834.019 1645.34 833.818 1645.24 833.659H1645.13V838.273H1643.79ZM1645.11 830.636C1645.11 831.295 1645.2 831.877 1645.4 832.381C1645.59 832.881 1645.87 833.273 1646.24 833.557C1646.62 833.837 1647.07 833.977 1647.61 833.977C1648.17 833.977 1648.64 833.83 1649.01 833.534C1649.39 833.235 1649.67 832.833 1649.86 832.33C1650.06 831.822 1650.15 831.258 1650.15 830.636C1650.15 830.023 1650.06 829.47 1649.87 828.977C1649.68 828.481 1649.4 828.089 1649.02 827.801C1648.65 827.509 1648.18 827.364 1647.61 827.364C1647.06 827.364 1646.6 827.502 1646.23 827.778C1645.86 828.051 1645.58 828.434 1645.39 828.926C1645.2 829.415 1645.11 829.985 1645.11 830.636ZM1657.09 835.182C1656.3 835.182 1655.61 834.994 1655.01 834.619C1654.42 834.244 1653.96 833.72 1653.62 833.045C1653.3 832.371 1653.13 831.583 1653.13 830.682C1653.13 829.773 1653.3 828.979 1653.62 828.301C1653.96 827.623 1654.42 827.097 1655.01 826.722C1655.61 826.347 1656.3 826.159 1657.09 826.159C1657.87 826.159 1658.56 826.347 1659.15 826.722C1659.75 827.097 1660.21 827.623 1660.54 828.301C1660.87 828.979 1661.04 829.773 1661.04 830.682C1661.04 831.583 1660.87 832.371 1660.54 833.045C1660.21 833.72 1659.75 834.244 1659.15 834.619C1658.56 834.994 1657.87 835.182 1657.09 835.182ZM1657.09 833.977C1657.68 833.977 1658.18 833.824 1658.56 833.517C1658.95 833.21 1659.23 832.807 1659.42 832.307C1659.61 831.807 1659.7 831.265 1659.7 830.682C1659.7 830.098 1659.61 829.555 1659.42 829.051C1659.23 828.547 1658.95 828.14 1658.56 827.83C1658.18 827.519 1657.68 827.364 1657.09 827.364C1656.49 827.364 1655.99 827.519 1655.61 827.83C1655.22 828.14 1654.94 828.547 1654.75 829.051C1654.56 829.555 1654.47 830.098 1654.47 830.682C1654.47 831.265 1654.56 831.807 1654.75 832.307C1654.94 832.807 1655.22 833.21 1655.61 833.517C1655.99 833.824 1656.49 833.977 1657.09 833.977ZM1662.31 835V833.75H1662.63C1662.89 833.75 1663.11 833.699 1663.29 833.597C1663.46 833.491 1663.6 833.307 1663.71 833.045C1663.82 832.78 1663.9 832.413 1663.96 831.943C1664.02 831.47 1664.06 830.867 1664.09 830.136L1664.25 826.273H1670.06V835H1668.72V827.523H1665.52L1665.38 830.636C1665.35 831.352 1665.29 831.983 1665.19 832.528C1665.09 833.07 1664.95 833.525 1664.75 833.892C1664.56 834.259 1664.3 834.536 1663.98 834.722C1663.66 834.907 1663.25 835 1662.77 835H1662.31ZM1673.68 829.432H1676.18C1677.21 829.432 1677.99 829.691 1678.53 830.21C1679.07 830.729 1679.34 831.386 1679.34 832.182C1679.34 832.705 1679.22 833.18 1678.98 833.608C1678.74 834.032 1678.38 834.371 1677.91 834.625C1677.44 834.875 1676.87 835 1676.18 835H1672.52V826.273H1673.87V833.75H1676.18C1676.71 833.75 1677.15 833.61 1677.49 833.33C1677.83 833.049 1678 832.689 1678 832.25C1678 831.788 1677.83 831.411 1677.49 831.119C1677.15 830.828 1676.71 830.682 1676.18 830.682H1673.68V829.432Z" fill="#B3B3B3"/>
<path d="M1606 1155C1606 1138.43 1619.43 1125 1636 1125H2311C2327.57 1125 2341 1138.43 2341 1155V1170C2341 1186.57 2327.57 1200 2311 1200H1636C1619.43 1200 1606 1186.57 1606 1170V1155Z" fill="#D9D9D9"/>
<path d="M1776.9 1174V1152.18H1785.63C1787.24 1152.18 1788.58 1152.42 1789.65 1152.9C1790.72 1153.37 1791.53 1154.03 1792.07 1154.88C1792.61 1155.72 1792.88 1156.68 1792.88 1157.77C1792.88 1158.63 1792.71 1159.38 1792.37 1160.02C1792.02 1160.66 1791.56 1161.19 1790.96 1161.6C1790.37 1162 1789.69 1162.29 1788.93 1162.46V1162.68C1789.77 1162.71 1790.54 1162.95 1791.27 1163.38C1792 1163.81 1792.59 1164.42 1793.05 1165.2C1793.5 1165.97 1793.73 1166.9 1793.73 1167.97C1793.73 1169.13 1793.44 1170.16 1792.87 1171.07C1792.3 1171.97 1791.46 1172.69 1790.34 1173.21C1789.23 1173.74 1787.85 1174 1786.22 1174H1776.9ZM1781.51 1170.23H1785.27C1786.56 1170.23 1787.49 1169.98 1788.08 1169.49C1788.67 1169 1788.97 1168.34 1788.97 1167.51C1788.97 1166.91 1788.82 1166.38 1788.53 1165.91C1788.24 1165.45 1787.82 1165.09 1787.28 1164.83C1786.75 1164.56 1786.12 1164.43 1785.38 1164.43H1781.51V1170.23ZM1781.51 1161.31H1784.93C1785.56 1161.31 1786.12 1161.2 1786.61 1160.98C1787.11 1160.75 1787.5 1160.43 1787.78 1160.02C1788.08 1159.61 1788.22 1159.12 1788.22 1158.54C1788.22 1157.75 1787.94 1157.12 1787.38 1156.63C1786.83 1156.15 1786.04 1155.91 1785.01 1155.91H1781.51V1161.31ZM1804.04 1174.32C1802.38 1174.32 1800.95 1173.97 1799.75 1173.26C1798.54 1172.55 1797.62 1171.57 1796.96 1170.3C1796.31 1169.03 1795.98 1167.56 1795.98 1165.88C1795.98 1164.19 1796.31 1162.71 1796.96 1161.45C1797.62 1160.18 1798.54 1159.19 1799.75 1158.49C1800.95 1157.78 1802.38 1157.42 1804.04 1157.42C1805.69 1157.42 1807.12 1157.78 1808.32 1158.49C1809.53 1159.19 1810.46 1160.18 1811.11 1161.45C1811.77 1162.71 1812.09 1164.19 1812.09 1165.88C1812.09 1167.56 1811.77 1169.03 1811.11 1170.3C1810.46 1171.57 1809.53 1172.55 1808.32 1173.26C1807.12 1173.97 1805.69 1174.32 1804.04 1174.32ZM1804.06 1170.8C1804.81 1170.8 1805.44 1170.59 1805.95 1170.16C1806.45 1169.73 1806.83 1169.14 1807.09 1168.4C1807.35 1167.65 1807.48 1166.8 1807.48 1165.85C1807.48 1164.9 1807.35 1164.05 1807.09 1163.3C1806.83 1162.56 1806.45 1161.97 1805.95 1161.54C1805.44 1161.1 1804.81 1160.89 1804.06 1160.89C1803.3 1160.89 1802.66 1161.1 1802.14 1161.54C1801.63 1161.97 1801.24 1162.56 1800.98 1163.3C1800.73 1164.05 1800.6 1164.9 1800.6 1165.85C1800.6 1166.8 1800.73 1167.65 1800.98 1168.4C1801.24 1169.14 1801.63 1169.73 1802.14 1170.16C1802.66 1170.59 1803.3 1170.8 1804.06 1170.8ZM1819.38 1168.01L1825.27 1157.64H1829.75V1174H1825.42V1163.59L1819.55 1174H1815.04V1157.64H1819.38V1168.01ZM1824.49 1151.93H1827.66C1827.65 1153.22 1827.17 1154.26 1826.22 1155.05C1825.27 1155.84 1824 1156.23 1822.38 1156.23C1820.76 1156.23 1819.48 1155.84 1818.54 1155.05C1817.59 1154.26 1817.12 1153.22 1817.12 1151.93H1820.26C1820.26 1152.42 1820.41 1152.86 1820.73 1153.25C1821.06 1153.64 1821.61 1153.83 1822.38 1153.83C1823.14 1153.83 1823.68 1153.64 1824 1153.26C1824.33 1152.87 1824.49 1152.43 1824.49 1151.93ZM1831.74 1161.21V1157.64H1846.57V1161.21H1841.3V1174H1836.97V1161.21H1831.74ZM1853.66 1168.01L1859.55 1157.64H1864.02V1174H1859.7V1163.59L1853.83 1174H1849.32V1157.64H1853.66V1168.01ZM1882 1174.32C1880.32 1174.32 1878.88 1173.96 1877.67 1173.25C1876.47 1172.54 1875.55 1171.54 1874.9 1170.27C1874.26 1169 1873.94 1167.54 1873.94 1165.88C1873.94 1164.21 1874.27 1162.74 1874.91 1161.47C1875.57 1160.2 1876.49 1159.21 1877.69 1158.5C1878.89 1157.78 1880.32 1157.42 1881.98 1157.42C1883.4 1157.42 1884.65 1157.68 1885.73 1158.2C1886.8 1158.72 1887.65 1159.45 1888.27 1160.38C1888.9 1161.32 1889.24 1162.42 1889.31 1163.69H1885.02C1884.9 1162.87 1884.58 1162.21 1884.06 1161.72C1883.55 1161.21 1882.88 1160.96 1882.05 1160.96C1881.35 1160.96 1880.73 1161.15 1880.21 1161.54C1879.69 1161.91 1879.28 1162.46 1878.99 1163.19C1878.7 1163.91 1878.56 1164.79 1878.56 1165.82C1878.56 1166.86 1878.7 1167.75 1878.98 1168.48C1879.27 1169.21 1879.68 1169.77 1880.21 1170.15C1880.73 1170.54 1881.35 1170.73 1882.05 1170.73C1882.57 1170.73 1883.03 1170.62 1883.45 1170.41C1883.87 1170.2 1884.21 1169.89 1884.48 1169.48C1884.76 1169.07 1884.94 1168.58 1885.02 1168H1889.31C1889.23 1169.25 1888.89 1170.35 1888.28 1171.3C1887.68 1172.25 1886.84 1172.99 1885.78 1173.52C1884.71 1174.05 1883.45 1174.32 1882 1174.32ZM1899.15 1174V1157.64H1913.46V1174H1909.13V1161.21H1903.44V1174H1899.15ZM1924.48 1174.32C1922.82 1174.32 1921.39 1173.97 1920.18 1173.26C1918.98 1172.55 1918.06 1171.57 1917.4 1170.3C1916.75 1169.03 1916.42 1167.56 1916.42 1165.88C1916.42 1164.19 1916.75 1162.71 1917.4 1161.45C1918.06 1160.18 1918.98 1159.19 1920.18 1158.49C1921.39 1157.78 1922.82 1157.42 1924.48 1157.42C1926.13 1157.42 1927.56 1157.78 1928.76 1158.49C1929.97 1159.19 1930.9 1160.18 1931.55 1161.45C1932.21 1162.71 1932.53 1164.19 1932.53 1165.88C1932.53 1167.56 1932.21 1169.03 1931.55 1170.3C1930.9 1171.57 1929.97 1172.55 1928.76 1173.26C1927.56 1173.97 1926.13 1174.32 1924.48 1174.32ZM1924.5 1170.8C1925.25 1170.8 1925.88 1170.59 1926.38 1170.16C1926.89 1169.73 1927.27 1169.14 1927.52 1168.4C1927.79 1167.65 1927.92 1166.8 1927.92 1165.85C1927.92 1164.9 1927.79 1164.05 1927.52 1163.3C1927.27 1162.56 1926.89 1161.97 1926.38 1161.54C1925.88 1161.1 1925.25 1160.89 1924.5 1160.89C1923.74 1160.89 1923.1 1161.1 1922.58 1161.54C1922.07 1161.97 1921.68 1162.56 1921.42 1163.3C1921.16 1164.05 1921.04 1164.9 1921.04 1165.85C1921.04 1166.8 1921.16 1167.65 1921.42 1168.4C1921.68 1169.14 1922.07 1169.73 1922.58 1170.16C1923.1 1170.59 1923.74 1170.8 1924.5 1170.8ZM1945.16 1168.98L1949.59 1157.64H1953.04L1946.66 1174H1943.64L1937.41 1157.64H1940.85L1945.16 1168.98ZM1939.82 1157.64V1174H1935.48V1157.64H1939.82ZM1950.72 1174V1157.64H1955V1174H1950.72ZM1965.9 1174.32C1964.25 1174.32 1962.82 1173.97 1961.61 1173.26C1960.41 1172.55 1959.48 1171.57 1958.83 1170.3C1958.18 1169.03 1957.85 1167.56 1957.85 1165.88C1957.85 1164.19 1958.18 1162.71 1958.83 1161.45C1959.48 1160.18 1960.41 1159.19 1961.61 1158.49C1962.82 1157.78 1964.25 1157.42 1965.9 1157.42C1967.56 1157.42 1968.99 1157.78 1970.19 1158.49C1971.39 1159.19 1972.32 1160.18 1972.98 1161.45C1973.63 1162.71 1973.96 1164.19 1973.96 1165.88C1973.96 1167.56 1973.63 1169.03 1972.98 1170.3C1972.32 1171.57 1971.39 1172.55 1970.19 1173.26C1968.99 1173.97 1967.56 1174.32 1965.9 1174.32ZM1965.93 1170.8C1966.68 1170.8 1967.31 1170.59 1967.81 1170.16C1968.31 1169.73 1968.69 1169.14 1968.95 1168.4C1969.21 1167.65 1969.34 1166.8 1969.34 1165.85C1969.34 1164.9 1969.21 1164.05 1968.95 1163.3C1968.69 1162.56 1968.31 1161.97 1967.81 1161.54C1967.31 1161.1 1966.68 1160.89 1965.93 1160.89C1965.17 1160.89 1964.53 1161.1 1964.01 1161.54C1963.5 1161.97 1963.11 1162.56 1962.85 1163.3C1962.59 1164.05 1962.46 1164.9 1962.46 1165.85C1962.46 1166.8 1962.59 1167.65 1962.85 1168.4C1963.11 1169.14 1963.5 1169.73 1964.01 1170.16C1964.53 1170.59 1965.17 1170.8 1965.93 1170.8ZM2002.62 1170.43L2002.3 1178.69H1998.13V1174H1996.31V1170.43H2002.62ZM1976.91 1157.64H1981.24V1170.4H1985.86V1157.64H1990.19V1170.4H1994.81V1157.64H1999.14V1174H1976.91V1157.64ZM2008.17 1162.66H2013.06C2015.23 1162.66 2016.92 1163.18 2018.13 1164.22C2019.35 1165.25 2019.95 1166.63 2019.95 1168.35C2019.95 1169.48 2019.68 1170.46 2019.13 1171.32C2018.59 1172.16 2017.8 1172.82 2016.77 1173.3C2015.74 1173.77 2014.5 1174 2013.06 1174H2005.33V1157.64H2009.66V1170.43H2013.06C2013.82 1170.43 2014.45 1170.24 2014.94 1169.86C2015.43 1169.47 2015.67 1168.98 2015.68 1168.39C2015.67 1167.75 2015.43 1167.24 2014.94 1166.84C2014.45 1166.44 2013.82 1166.23 2013.06 1166.23H2008.17V1162.66ZM2032.01 1164.1V1167.7H2023.13V1164.1H2032.01ZM2026.64 1157.64V1174H2022.11V1157.64H2026.64ZM2036.91 1174.32C2035.29 1174.32 2033.89 1173.96 2032.71 1173.23C2031.53 1172.51 2030.62 1171.51 2029.98 1170.23C2029.35 1168.95 2029.04 1167.48 2029.04 1165.83C2029.04 1164.17 2029.35 1162.71 2029.98 1161.45C2030.62 1160.19 2031.53 1159.2 2032.71 1158.49C2033.89 1157.78 2035.29 1157.42 2036.91 1157.42C2038.54 1157.42 2039.93 1157.78 2041.11 1158.49C2042.29 1159.2 2043.19 1160.19 2043.82 1161.45C2044.46 1162.71 2044.78 1164.17 2044.78 1165.83C2044.78 1167.48 2044.46 1168.95 2043.82 1170.23C2043.19 1171.51 2042.29 1172.51 2041.11 1173.23C2039.93 1173.96 2038.54 1174.32 2036.91 1174.32ZM2036.91 1170.65C2037.75 1170.65 2038.44 1170.45 2038.95 1170.04C2039.47 1169.62 2039.85 1169.05 2040.09 1168.32C2040.34 1167.59 2040.46 1166.76 2040.46 1165.83C2040.46 1164.9 2040.34 1164.07 2040.09 1163.36C2039.85 1162.63 2039.47 1162.06 2038.95 1161.65C2038.44 1161.24 2037.75 1161.03 2036.91 1161.03C2036.07 1161.03 2035.39 1161.24 2034.86 1161.65C2034.34 1162.06 2033.95 1162.62 2033.7 1163.34C2033.46 1164.05 2033.34 1164.88 2033.34 1165.83C2033.34 1166.77 2033.46 1167.6 2033.7 1168.32C2033.95 1169.05 2034.34 1169.62 2034.86 1170.04C2035.39 1170.45 2036.07 1170.65 2036.91 1170.65ZM2054.06 1155.99V1152.18H2071.98V1155.99H2065.3V1174H2060.74V1155.99H2054.06ZM2079.93 1174.32C2078.25 1174.32 2076.8 1173.98 2075.59 1173.3C2074.38 1172.61 2073.45 1171.63 2072.79 1170.38C2072.14 1169.11 2071.81 1167.62 2071.81 1165.89C2071.81 1164.21 2072.14 1162.73 2072.79 1161.46C2073.45 1160.19 2074.37 1159.2 2075.55 1158.49C2076.75 1157.78 2078.15 1157.42 2079.75 1157.42C2080.83 1157.42 2081.84 1157.6 2082.77 1157.95C2083.7 1158.29 2084.52 1158.8 2085.22 1159.49C2085.92 1160.18 2086.47 1161.05 2086.86 1162.09C2087.25 1163.13 2087.44 1164.34 2087.44 1165.73V1166.98H2073.63V1164.17H2083.17C2083.17 1163.51 2083.03 1162.93 2082.75 1162.43C2082.46 1161.93 2082.07 1161.53 2081.56 1161.25C2081.07 1160.96 2080.49 1160.81 2079.83 1160.81C2079.14 1160.81 2078.53 1160.97 2077.99 1161.29C2077.47 1161.6 2077.06 1162.03 2076.76 1162.56C2076.46 1163.08 2076.31 1163.67 2076.3 1164.32V1166.99C2076.3 1167.8 2076.45 1168.5 2076.75 1169.09C2077.05 1169.68 2077.48 1170.13 2078.04 1170.45C2078.59 1170.77 2079.25 1170.93 2080.01 1170.93C2080.51 1170.93 2080.97 1170.86 2081.39 1170.72C2081.81 1170.58 2082.17 1170.36 2082.47 1170.08C2082.77 1169.8 2082.99 1169.45 2083.15 1169.04L2087.35 1169.31C2087.13 1170.32 2086.7 1171.2 2086.04 1171.95C2085.38 1172.7 2084.54 1173.28 2083.5 1173.7C2082.47 1174.11 2081.28 1174.32 2079.93 1174.32ZM2094.94 1152.18V1174H2090.4V1152.18H2094.94ZM2106.04 1174.32C2104.35 1174.32 2102.9 1173.98 2101.69 1173.3C2100.48 1172.61 2099.55 1171.63 2098.9 1170.38C2098.24 1169.11 2097.92 1167.62 2097.92 1165.89C2097.92 1164.21 2098.24 1162.73 2098.9 1161.46C2099.55 1160.19 2100.47 1159.2 2101.66 1158.49C2102.85 1157.78 2104.25 1157.42 2105.85 1157.42C2106.93 1157.42 2107.94 1157.6 2108.87 1157.95C2109.81 1158.29 2110.62 1158.8 2111.32 1159.49C2112.02 1160.18 2112.57 1161.05 2112.96 1162.09C2113.35 1163.13 2113.55 1164.34 2113.55 1165.73V1166.98H2099.73V1164.17H2109.27C2109.27 1163.51 2109.13 1162.93 2108.85 1162.43C2108.56 1161.93 2108.17 1161.53 2107.67 1161.25C2107.17 1160.96 2106.59 1160.81 2105.93 1160.81C2105.24 1160.81 2104.63 1160.97 2104.1 1161.29C2103.57 1161.6 2103.16 1162.03 2102.86 1162.56C2102.56 1163.08 2102.41 1163.67 2102.4 1164.32V1166.99C2102.4 1167.8 2102.55 1168.5 2102.85 1169.09C2103.16 1169.68 2103.59 1170.13 2104.14 1170.45C2104.69 1170.77 2105.35 1170.93 2106.11 1170.93C2106.61 1170.93 2107.08 1170.86 2107.5 1170.72C2107.91 1170.58 2108.27 1170.36 2108.57 1170.08C2108.87 1169.8 2109.1 1169.45 2109.25 1169.04L2113.45 1169.31C2113.24 1170.32 2112.8 1171.2 2112.14 1171.95C2111.49 1172.7 2110.64 1173.28 2109.6 1173.7C2108.58 1174.11 2107.39 1174.32 2106.04 1174.32ZM2123.88 1180.48C2122.41 1180.48 2121.15 1180.27 2120.1 1179.87C2119.05 1179.47 2118.22 1178.93 2117.61 1178.24C2116.99 1177.55 2116.59 1176.78 2116.4 1175.92L2120.6 1175.35C2120.73 1175.68 2120.93 1175.99 2121.21 1176.27C2121.48 1176.55 2121.85 1176.78 2122.3 1176.95C2122.77 1177.13 2123.33 1177.22 2123.99 1177.22C2124.97 1177.22 2125.79 1176.98 2126.43 1176.49C2127.07 1176.02 2127.4 1175.22 2127.4 1174.1V1171.1H2127.2C2127.01 1171.56 2126.71 1171.99 2126.31 1172.39C2125.91 1172.8 2125.4 1173.13 2124.78 1173.38C2124.15 1173.64 2123.4 1173.77 2122.54 1173.77C2121.31 1173.77 2120.19 1173.48 2119.18 1172.91C2118.18 1172.34 2117.38 1171.46 2116.79 1170.28C2116.2 1169.1 2115.9 1167.6 2115.9 1165.79C2115.9 1163.93 2116.2 1162.38 2116.81 1161.14C2117.41 1159.9 2118.21 1158.97 2119.21 1158.35C2120.22 1157.73 2121.33 1157.42 2122.53 1157.42C2123.44 1157.42 2124.21 1157.58 2124.83 1157.89C2125.45 1158.2 2125.94 1158.58 2126.32 1159.04C2126.7 1159.5 2127 1159.94 2127.2 1160.38H2127.37V1157.64H2131.88V1174.16C2131.88 1175.55 2131.54 1176.72 2130.86 1177.65C2130.18 1178.59 2129.23 1179.29 2128.02 1179.76C2126.82 1180.24 2125.44 1180.48 2123.88 1180.48ZM2123.98 1170.36C2124.71 1170.36 2125.33 1170.18 2125.83 1169.81C2126.34 1169.44 2126.73 1168.92 2127 1168.24C2127.28 1167.55 2127.42 1166.72 2127.42 1165.76C2127.42 1164.81 2127.28 1163.98 2127.01 1163.27C2126.74 1162.56 2126.35 1162.01 2125.84 1161.62C2125.33 1161.23 2124.71 1161.03 2123.98 1161.03C2123.23 1161.03 2122.6 1161.24 2122.09 1161.64C2121.58 1162.04 2121.19 1162.59 2120.93 1163.3C2120.67 1164.01 2120.54 1164.83 2120.54 1165.76C2120.54 1166.71 2120.67 1167.53 2120.93 1168.22C2121.2 1168.9 2121.59 1169.43 2122.09 1169.8C2122.6 1170.17 2123.23 1170.36 2123.98 1170.36ZM2135.49 1174V1157.64H2139.89V1160.49H2140.06C2140.36 1159.48 2140.86 1158.71 2141.57 1158.19C2142.27 1157.66 2143.08 1157.4 2143.99 1157.4C2144.22 1157.4 2144.47 1157.42 2144.73 1157.44C2144.99 1157.47 2145.22 1157.51 2145.42 1157.56V1161.59C2145.21 1161.52 2144.91 1161.47 2144.54 1161.42C2144.16 1161.37 2143.82 1161.34 2143.5 1161.34C2142.84 1161.34 2142.24 1161.49 2141.71 1161.78C2141.2 1162.06 2140.78 1162.46 2140.48 1162.97C2140.18 1163.49 2140.03 1164.07 2140.03 1164.74V1174H2135.49ZM2151.97 1174.31C2150.92 1174.31 2149.99 1174.13 2149.17 1173.77C2148.36 1173.4 2147.71 1172.85 2147.24 1172.14C2146.77 1171.41 2146.53 1170.51 2146.53 1169.43C2146.53 1168.52 2146.7 1167.76 2147.03 1167.14C2147.37 1166.52 2147.82 1166.02 2148.4 1165.65C2148.97 1165.27 2149.63 1164.99 2150.36 1164.8C2151.1 1164.6 2151.87 1164.47 2152.68 1164.39C2153.63 1164.29 2154.4 1164.2 2154.98 1164.11C2155.56 1164.02 2155.99 1163.89 2156.25 1163.71C2156.51 1163.53 2156.64 1163.27 2156.64 1162.92V1162.86C2156.64 1162.18 2156.43 1161.66 2156 1161.29C2155.58 1160.92 2154.99 1160.74 2154.21 1160.74C2153.4 1160.74 2152.75 1160.92 2152.26 1161.28C2151.78 1161.63 2151.46 1162.08 2151.31 1162.62L2147.11 1162.28C2147.32 1161.29 2147.74 1160.43 2148.36 1159.7C2148.99 1158.97 2149.8 1158.41 2150.78 1158.02C2151.78 1157.62 2152.93 1157.42 2154.23 1157.42C2155.14 1157.42 2156.01 1157.53 2156.84 1157.74C2157.68 1157.96 2158.43 1158.29 2159.07 1158.73C2159.72 1159.18 2160.24 1159.76 2160.62 1160.46C2160.99 1161.16 2161.18 1161.99 2161.18 1162.96V1174H2156.88V1171.73H2156.75C2156.49 1172.24 2156.13 1172.69 2155.69 1173.08C2155.25 1173.47 2154.72 1173.77 2154.11 1173.99C2153.49 1174.2 2152.78 1174.31 2151.97 1174.31ZM2153.27 1171.18C2153.93 1171.18 2154.52 1171.05 2155.03 1170.78C2155.55 1170.51 2155.95 1170.15 2156.24 1169.7C2156.53 1169.24 2156.67 1168.73 2156.67 1168.15V1166.41C2156.53 1166.51 2156.34 1166.59 2156.09 1166.67C2155.85 1166.74 2155.57 1166.81 2155.27 1166.87C2154.96 1166.93 2154.66 1166.98 2154.35 1167.03C2154.05 1167.08 2153.77 1167.11 2153.52 1167.15C2152.99 1167.23 2152.52 1167.35 2152.13 1167.52C2151.73 1167.69 2151.42 1167.92 2151.2 1168.22C2150.98 1168.5 2150.87 1168.85 2150.87 1169.28C2150.87 1169.9 2151.09 1170.37 2151.54 1170.7C2151.99 1171.02 2152.57 1171.18 2153.27 1171.18ZM2164.7 1174V1157.64H2169.03V1160.52H2169.22C2169.56 1159.56 2170.13 1158.81 2170.92 1158.25C2171.72 1157.7 2172.67 1157.42 2173.78 1157.42C2174.9 1157.42 2175.86 1157.7 2176.64 1158.26C2177.43 1158.82 2177.96 1159.57 2178.22 1160.52H2178.39C2178.73 1159.59 2179.33 1158.84 2180.2 1158.28C2181.08 1157.71 2182.12 1157.42 2183.32 1157.42C2184.85 1157.42 2186.09 1157.91 2187.04 1158.88C2188 1159.85 2188.48 1161.22 2188.48 1163V1174H2183.95V1163.89C2183.95 1162.98 2183.71 1162.3 2183.23 1161.84C2182.75 1161.39 2182.14 1161.16 2181.42 1161.16C2180.59 1161.16 2179.95 1161.43 2179.49 1161.95C2179.03 1162.47 2178.8 1163.15 2178.8 1164.01V1174H2174.4V1163.79C2174.4 1162.99 2174.17 1162.35 2173.7 1161.88C2173.25 1161.4 2172.65 1161.16 2171.9 1161.16C2171.4 1161.16 2170.94 1161.29 2170.54 1161.55C2170.14 1161.79 2169.83 1162.15 2169.59 1162.6C2169.36 1163.05 2169.24 1163.57 2169.24 1164.18V1174H2164.7Z" fill="#38206A"/>
<path d="M1869 938C1869 921.431 1882.43 908 1899 908H2047C2063.57 908 2077 921.431 2077 938V953C2077 969.569 2063.57 983 2047 983H1899C1882.43 983 1869 969.569 1869 953V938Z" fill="#D9D9D9"/>
<path d="M1925.9 957V935.182H1934.63C1936.24 935.182 1937.58 935.42 1938.65 935.896C1939.72 936.371 1940.53 937.032 1941.07 937.877C1941.61 938.715 1941.88 939.681 1941.88 940.775C1941.88 941.627 1941.71 942.376 1941.37 943.023C1941.02 943.662 1940.56 944.187 1939.96 944.599C1939.37 945.004 1938.69 945.292 1937.93 945.462V945.675C1938.77 945.711 1939.54 945.945 1940.27 946.379C1941 946.812 1941.59 947.419 1942.05 948.2C1942.5 948.974 1942.73 949.898 1942.73 950.97C1942.73 952.128 1942.44 953.161 1941.87 954.07C1941.3 954.972 1940.46 955.686 1939.34 956.212C1938.23 956.737 1936.85 957 1935.22 957H1925.9ZM1930.51 953.229H1934.27C1935.56 953.229 1936.49 952.984 1937.08 952.494C1937.67 951.996 1937.97 951.336 1937.97 950.512C1937.97 949.908 1937.82 949.376 1937.53 948.914C1937.24 948.452 1936.82 948.09 1936.28 947.827C1935.75 947.565 1935.12 947.433 1934.38 947.433H1930.51V953.229ZM1930.51 944.312H1933.93C1934.56 944.312 1935.12 944.202 1935.61 943.982C1936.11 943.754 1936.5 943.435 1936.78 943.023C1937.08 942.611 1937.22 942.117 1937.22 941.542C1937.22 940.754 1936.94 940.118 1936.38 939.635C1935.83 939.152 1935.04 938.911 1934.01 938.911H1930.51V944.312ZM1953.04 957.32C1951.38 957.32 1949.95 956.968 1948.75 956.265C1947.54 955.555 1946.62 954.567 1945.96 953.303C1945.31 952.032 1944.98 950.558 1944.98 948.882C1944.98 947.192 1945.31 945.714 1945.96 944.45C1946.62 943.179 1947.54 942.192 1948.75 941.489C1949.95 940.778 1951.38 940.423 1953.04 940.423C1954.69 940.423 1956.12 940.778 1957.32 941.489C1958.53 942.192 1959.46 943.179 1960.11 944.45C1960.77 945.714 1961.09 947.192 1961.09 948.882C1961.09 950.558 1960.77 952.032 1960.11 953.303C1959.46 954.567 1958.53 955.555 1957.32 956.265C1956.12 956.968 1954.69 957.32 1953.04 957.32ZM1953.06 953.804C1953.81 953.804 1954.44 953.591 1954.95 953.165C1955.45 952.732 1955.83 952.142 1956.09 951.396C1956.35 950.651 1956.48 949.802 1956.48 948.85C1956.48 947.898 1956.35 947.05 1956.09 946.304C1955.83 945.558 1955.45 944.969 1954.95 944.536C1954.44 944.102 1953.81 943.886 1953.06 943.886C1952.3 943.886 1951.66 944.102 1951.14 944.536C1950.63 944.969 1950.24 945.558 1949.98 946.304C1949.73 947.05 1949.6 947.898 1949.6 948.85C1949.6 949.802 1949.73 950.651 1949.98 951.396C1950.24 952.142 1950.63 952.732 1951.14 953.165C1951.66 953.591 1952.3 953.804 1953.06 953.804ZM1968.38 951.013L1974.27 940.636H1978.75V957H1974.42V946.592L1968.55 957H1964.04V940.636H1968.38V951.013ZM1973.49 934.926H1976.66C1976.65 936.219 1976.17 937.259 1975.22 938.048C1974.27 938.836 1973 939.23 1971.38 939.23C1969.76 939.23 1968.48 938.836 1967.54 938.048C1966.59 937.259 1966.12 936.219 1966.12 934.926H1969.26C1969.26 935.416 1969.41 935.857 1969.73 936.247C1970.06 936.638 1970.61 936.833 1971.38 936.833C1972.14 936.833 1972.68 936.641 1973 936.258C1973.33 935.874 1973.49 935.43 1973.49 934.926ZM1980.74 944.205V940.636H1995.57V944.205H1990.3V957H1985.97V944.205H1980.74ZM2002.66 951.013L2008.55 940.636H2013.02V957H2008.7V946.592L2002.83 957H1998.32V940.636H2002.66V951.013Z" fill="#38206A"/>
<path d="M1680.5 483.988C1686.08 483.988 1690.38 482.484 1693.39 479.477C1696.39 476.469 1697.9 472.172 1697.9 466.586V441.391C1697.9 438.656 1697.51 436.215 1696.73 434.066C1695.95 431.918 1694.79 430.102 1693.27 428.617C1691.79 427.094 1689.97 425.941 1687.82 425.16C1685.67 424.379 1683.23 423.988 1680.5 423.988H1649.79V483.988H1680.5ZM1637.78 496V411.977H1680.5C1684.99 411.977 1689.03 412.68 1692.62 414.086C1696.26 415.453 1699.34 417.426 1701.88 420.004C1704.46 422.543 1706.43 425.629 1707.8 429.262C1709.21 432.895 1709.91 436.938 1709.91 441.391V466.586C1709.91 471.039 1709.21 475.082 1707.8 478.715C1706.43 482.348 1704.46 485.453 1701.88 488.031C1699.34 490.57 1696.26 492.543 1692.62 493.949C1689.03 495.316 1684.99 496 1680.5 496H1637.78ZM1780.81 470.688H1739.5V484.457H1780.81V496H1739.5C1737.94 496 1736.45 495.707 1735.05 495.121C1733.64 494.496 1732.41 493.676 1731.36 492.66C1730.34 491.605 1729.52 490.375 1728.89 488.969C1728.31 487.562 1728.02 486.059 1728.02 484.457V445.141C1728.02 443.539 1728.31 442.035 1728.89 440.629C1729.52 439.223 1730.34 438.012 1731.36 436.996C1732.41 435.941 1733.64 435.121 1735.05 434.535C1736.45 433.91 1737.94 433.598 1739.5 433.598H1769.27C1770.87 433.598 1772.37 433.91 1773.78 434.535C1775.18 435.121 1776.39 435.941 1777.41 436.996C1778.46 438.012 1779.29 439.223 1779.87 440.629C1780.5 442.035 1780.81 443.539 1780.81 445.141V470.688ZM1739.5 445.141V459.145H1769.27V445.141H1739.5ZM1852.88 470.688H1811.57V484.457H1852.88V496H1811.57C1810.01 496 1808.52 495.707 1807.12 495.121C1805.71 494.496 1804.48 493.676 1803.43 492.66C1802.41 491.605 1801.59 490.375 1800.96 488.969C1800.38 487.562 1800.09 486.059 1800.09 484.457V445.141C1800.09 443.539 1800.38 442.035 1800.96 440.629C1801.59 439.223 1802.41 438.012 1803.43 436.996C1804.48 435.941 1805.71 435.121 1807.12 434.535C1808.52 433.91 1810.01 433.598 1811.57 433.598H1841.34C1842.94 433.598 1844.44 433.91 1845.85 434.535C1847.25 435.121 1848.46 435.941 1849.48 436.996C1850.54 438.012 1851.36 439.223 1851.94 440.629C1852.57 442.035 1852.88 443.539 1852.88 445.141V470.688ZM1811.57 445.141V459.145H1841.34V445.141H1811.57ZM1927.35 484.457C1927.35 486.059 1927.04 487.562 1926.41 488.969C1925.83 490.375 1925.01 491.605 1923.95 492.66C1922.94 493.676 1921.73 494.496 1920.32 495.121C1918.91 495.707 1917.41 496 1915.81 496H1883.64V521.195H1872.16V433.598H1883.64V444.145C1883.76 442.66 1884.15 441.293 1884.81 440.043C1885.48 438.754 1886.32 437.641 1887.33 436.703C1888.35 435.727 1889.52 434.965 1890.85 434.418C1892.21 433.871 1893.66 433.598 1895.18 433.598H1915.81C1917.41 433.598 1918.91 433.91 1920.32 434.535C1921.73 435.121 1922.94 435.941 1923.95 436.996C1925.01 438.012 1925.83 439.223 1926.41 440.629C1927.04 442.035 1927.35 443.539 1927.35 445.141V484.457ZM1915.81 484.457V445.141H1883.64V484.457H1915.81ZM1940.54 411.977H2007.74V423.988H1980.14V496H1968.13V423.988H1940.54V411.977ZM2025.2 445.141V496H2013.72V433.598H2025.2V444.613C2025.28 443.09 2025.63 441.664 2026.26 440.336C2026.88 438.969 2027.7 437.797 2028.72 436.82C2029.77 435.805 2030.98 435.023 2032.35 434.477C2033.72 433.891 2035.18 433.598 2036.75 433.598H2048.99C2050.59 433.598 2052.08 433.91 2053.45 434.535C2054.85 435.121 2056.08 435.941 2057.14 436.996C2058.19 438.012 2059.01 439.223 2059.6 440.629C2060.22 442.035 2060.54 443.539 2060.54 445.141V455.688H2048.99V445.141H2025.2ZM2074.89 468.754C2074.89 467.152 2075.18 465.668 2075.77 464.301C2076.39 462.895 2077.21 461.664 2078.23 460.609C2079.29 459.555 2080.52 458.734 2081.92 458.148C2083.33 457.523 2084.81 457.211 2086.38 457.211H2116.14V445.141H2078.46V433.598H2116.14C2117.74 433.598 2119.25 433.91 2120.65 434.535C2122.06 435.121 2123.27 435.941 2124.29 436.996C2125.34 438.012 2126.16 439.223 2126.75 440.629C2127.37 442.035 2127.68 443.539 2127.68 445.141V496H2116.14V485.453C2116.02 486.898 2115.63 488.266 2114.97 489.555C2114.3 490.844 2113.45 491.977 2112.39 492.953C2111.38 493.891 2110.2 494.633 2108.88 495.18C2107.55 495.727 2106.14 496 2104.66 496H2086.38C2084.81 496 2083.33 495.707 2081.92 495.121C2080.52 494.496 2079.29 493.676 2078.23 492.66C2077.21 491.605 2076.39 490.375 2075.77 488.969C2075.18 487.562 2074.89 486.059 2074.89 484.457V468.754ZM2086.38 484.457H2116.14V468.754H2086.38V484.457ZM2164.71 496L2139.75 433.598H2151.77L2170.69 482.172L2189.68 433.598H2201.69L2176.73 496H2164.71ZM2266.55 470.688H2225.24V484.457H2266.55V496H2225.24C2223.68 496 2222.2 495.707 2220.79 495.121C2219.38 494.496 2218.15 493.676 2217.1 492.66C2216.08 491.605 2215.26 490.375 2214.64 488.969C2214.05 487.562 2213.76 486.059 2213.76 484.457V445.141C2213.76 443.539 2214.05 442.035 2214.64 440.629C2215.26 439.223 2216.08 438.012 2217.1 436.996C2218.15 435.941 2219.38 435.121 2220.79 434.535C2222.2 433.91 2223.68 433.598 2225.24 433.598H2255.01C2256.61 433.598 2258.11 433.91 2259.52 434.535C2260.93 435.121 2262.14 435.941 2263.15 436.996C2264.21 438.012 2265.03 439.223 2265.61 440.629C2266.24 442.035 2266.55 443.539 2266.55 445.141V470.688ZM2225.24 445.141V459.145H2255.01V445.141H2225.24ZM2297.31 409.574V496H2285.83V409.574H2297.31Z" fill="white"/>
</svg>
